<svg xmlns="http://www.w3.org/2000/svg" viewBox="0 0 32 32">
  <g fill="none">
    <circle cx="16" cy="16" r="16" fill="#2B2E7F"/>
    <g fill="#FFF">
      <path d="M17.06 19.03v-5.86h.77c2.54 0 3.17-2.38 3.17-2.38h-6.68c-3.18 0-3.71 2.38-3.71 2.38h3.94v8.82s2.5-.76 2.5-2.96z"/>
      <path d="M24.4 23.6a9.13 9.13 0 0 0 2.3-8.69 9.34 9.34 0 0 0-2.48-4.28l-.35-.32-.1-.1a2.19 2.19 0 0 0-.24-.2l-.14-.1-.22-.17-.12-.09a4.15 4.15 0 0 1-.26-.18l-.16-.1a1.22 1.22 0 0 0-.21-.13l-.17-.1c-.07-.04-.14-.1-.21-.13l-.16-.09-.24-.1-.05-.02c.2.16.4.34.57.51a8.75 8.75 0 0 1 0 12.43 11.3 11.3 0 0 1-15.89 0l-.47-.48-.12-.14a5.76 5.76 0 0 1-.27-.34 11.86 11.86 0 0 0 2.17 3 11.82 11.82 0 0 0 16.61 0 .61.61 0 0 0 .2-.19z"/>
      <path d="M10.4 22.39a8.17 8.17 0 0 1-.58-.52 8.76 8.76 0 0 1 0-12.44 11.32 11.32 0 0 1 16.77.96 11.78 11.78 0 0 0-2.17-2.98 11.83 11.83 0 0 0-16.63 0c-.05.06-.1.13-.18.18A9.17 9.17 0 0 0 6.6 19.12a9.64 9.64 0 0 0 3.81 3.27z"/>
    </g>
  </g>
</svg>
